PathFileType	4	(X/Y/Z)	./resultDataOpenSim/trcMotMarkerGrf/sub06/qtm-05-01.trc
DataRate	CameraRate	NumFrames	NumMarkers	Units	OrigDataRate	OrigDataStartFrame	OrigNumFrames
250.000000	250.000000	5	24	m	250.000000	200	531
Frame#	Time	L.Toe.Tip			R.Toe.Tip			L.Ankle.Lat			R.Ankle.Lat			L.Ankle.Med			R.Ankle.Med			L.Heel			R.Heel			L.Knee.Lat			R.Knee.Lat			L.Knee.Med			R.Knee.Med			L.Thigh.Upper			R.Thigh.Upper			L.ASIS			R.ASIS			V.Sacral			L.Acromium			R.Acromium			C7			L.Elbow			R.Elbow			L.Wrist.Lat			R.Wrist.Lat
		X1	Y1	Z1	X2	Y2	Z2	X3	Y3	Z3	X4	Y4	Z4	X5	Y5	Z5	X6	Y6	Z6	X7	Y7	Z7	X8	Y8	Z8	X9	Y9	Z9	X10	Y10	Z10	X11	Y11	Z11	X12	Y12	Z12	X13	Y13	Z13	X14	Y14	Z14	X15	Y15	Z15	X16	Y16	Z16	X17	Y17	Z17	X18	Y18	Z18	X19	Y19	Z19	X20	Y20	Z20	X21	Y21	Z21	X22	Y22	Z22	X23	Y23	Z23	X24	Y24	Z24

200	0.796	0.044166194	-0.064400177	-0.019448325	-0.37595279	0.1108131	0.16099481	-0.076886687	-0.034059333	-0.043703986	-0.38880074	0.24750593	0.17216272	-0.076530898	-0.017423763	0.043713311	-0.35242931	0.22783467	0.091074285	-0.15546702	-0.055983366	0.0018867165	-0.42010405	0.2879613	0.10621689	0.052772796	0.31734323	-0.075200701	-0.030354106	0.31099751	0.22292634	0.027199652	0.31897472	0.045058407	-0.045680833	0.29262118	0.088471385	-0.077451617	0.693992	-0.1446935	-0.14501617	0.65569974	0.19314165	-0.017109324	0.73016896	-0.088941273	-0.046463454	0.71622734	0.15765342	-0.21912379	0.80312143	0.024602808	-0.078952853	1.1943643	-0.17164814	-0.099938516	1.2047554	0.19216727	-0.16373309	1.243339	0.0032281584	-0.17246928	0.89556118	-0.21331383	-0.18640063	0.89981182	0.27906048	-0.075570223	0.67504103	-0.26448788	-0.0024126008	0.73256938	0.29783494
201	0.8	0.044161015	-0.064386064	-0.019467871	-0.35738563	0.11174797	0.16083965	-0.076784663	-0.0338828	-0.043574563	-0.37392127	0.24762007	0.17229547	-0.076439345	-0.017157121	0.043643324	-0.33730316	0.22890402	0.091119387	-0.15543922	-0.055750303	0.0018757826	-0.40629233	0.28764279	0.10673786	0.053183573	0.31758656	-0.07492614	-0.016310912	0.31589202	0.22248372	0.026389531	0.31861701	0.044896295	-0.032004414	0.29712144	0.087627093	-0.072364273	0.69591311	-0.14474577	-0.13837388	0.65850081	0.19369553	-0.011582978	0.73200423	-0.089163036	-0.040457068	0.71877294	0.15725101	-0.21295501	0.80556672	0.024595657	-0.072478833	1.1969882	-0.17131321	-0.094323371	1.2070143	0.19234994	-0.15748194	1.2456649	0.0033373418	-0.16458455	0.897548	-0.21361741	-0.18319168	0.90255464	0.27810716	-0.064955693	0.67786545	-0.26351645	-0.0015809579	0.73320134	0.29857843
202	0.804	0.044157152	-0.064371734	-0.019492763	-0.33854548	0.11259172	0.16069997	-0.076738175	-0.03367207	-0.043502521	-0.35899205	0.24754571	0.17241468	-0.076368255	-0.016880203	0.04357223	-0.32211366	0.22978918	0.091077849	-0.15544701	-0.055491828	0.0017777052	-0.39266586	0.28707383	0.10718973	0.053551298	0.31789327	-0.074636596	-0.002415352	0.32096045	0.22194778	0.025850097	0.31853739	0.044944526	-0.01817594	0.30194173	0.086978585	-0.067044097	0.6978954	-0.14474855	-0.13155926	0.66140053	0.19422605	-0.0060860774	0.73386811	-0.089349872	-0.034375236	0.72138759	0.156833	-0.20656851	0.80791913	0.024349905	-0.066031735	1.1996526	-0.1709703	-0.088705811	1.209301	0.19253096	-0.15124486	1.2480249	0.0034756398	-0.15683963	0.8996099	-0.2137397	-0.17996364	0.90537152	0.27715601	-0.054453186	0.68077434	-0.26260292	-0.0008003543	0.73392192	0.29930272
203	0.808	0.044153328	-0.064359464	-0.019519296	-0.31957215	0.1132845	0.16053593	-0.076753845	-0.033432179	-0.043501601	-0.34402604	0.24726871	0.17251142	-0.076321592	-0.016590911	0.043488004	-0.30697109	0.23046606	0.090973355	-0.15546187	-0.055204984	0.0016473269	-0.37919135	0.28619696	0.10753597	0.053902654	0.31827212	-0.074302318	0.011321116	0.32617818	0.22131727	0.025737585	0.318842	0.045255662	-0.0042587667	0.30700561	0.086435802	-0.061534371	0.69992152	-0.14469106	-0.12468847	0.66437848	0.19476261	-0.00061303587	0.73575854	-0.0894997	-0.028227036	0.72407605	0.15640004	-0.20014171	0.81023183	0.02402986	-0.059605926	1.2023491	-0.17061953	-0.083082032	1.2116093	0.19271332	-0.14501711	1.2504162	0.0036477188	-0.14913856	0.90170235	-0.21382315	-0.17670443	0.90825069	0.27621159	-0.044141788	0.68373666	-0.26177586	-1.6307832e-05	0.73473446	0.30001879
204	0.812	0.044152198	-0.064349347	-0.019540099	-0.30057891	0.11380523	0.1603135	-0.076813354	-0.033166408	-0.043560169	-0.32905546	0.24676517	0.17257241	-0.076319471	-0.016304218	0.043381011	-0.29197098	0.23093679	0.090835784	-0.15545064	-0.05488513	0.0015423374	-0.36579442	0.28494366	0.10770278	0.054208588	0.31871435	-0.073927866	0.024894969	0.33152232	0.22060522	0.025758051	0.31942497	0.045683288	0.009557294	0.31220777	0.085889203	-0.05596255	0.70194307	-0.14458556	-0.11779842	0.66743345	0.19530474	0.0048544355	0.73768864	-0.089607178	-0.022013833	0.72684801	0.15596632	-0.19395079	0.81260264	0.023847175	-0.053197094	1.2050762	-0.17025757	-0.077449676	1.2139377	0.19289999	-0.13880275	1.2528192	0.0038494223	-0.14132164	0.90378697	-0.21406371	-0.17340494	0.91117539	0.27527921	-0.034012856	0.68674199	-0.26101171	0.00077791745	0.73563191	0.30072585
